<svg width="21" height="20" viewBox="0 0 21 20" fill="none" xmlns="http://www.w3.org/2000/svg">
<path d="M19.002 3.34168C18.152 3.75001 17.319 3.91584 16.452 4.16668C15.4991 3.11251 14.0864 3.05418 12.729 3.55251C11.3715 4.05084 10.4824 5.26918 10.502 6.66668V7.50001C7.7437 7.56918 5.2872 6.33751 3.70195 4.16668C3.70195 4.16668 0.147253 10.3608 7.10195 13.3333C5.51075 14.3725 3.9238 15.0733 2.00195 15C4.81375 16.5025 7.878 17.0192 10.5309 16.2642C13.5739 15.3975 16.0746 13.1617 17.0342 9.81251C17.3205 8.7939 17.4626 7.74156 17.4567 6.68501C17.4567 6.47751 18.7402 4.37584 19.002 3.34168Z" stroke="white" stroke-width="1.5" stroke-linecap="round" stroke-linejoin="round"/>
</svg>
