<svg width="24" height="24" viewBox="0 0 24 24" fill="none" xmlns="http://www.w3.org/2000/svg">
<path d="M8.00024 12H4.00024C3.44796 12 3.00024 12.4477 3.00024 13V19C3.00024 19.5523 3.44796 20 4.00024 20H8.00024C8.55253 20 9.00024 19.5523 9.00024 19V13C9.00024 12.4477 8.55253 12 8.00024 12Z" stroke="#0C8CE9" stroke-width="1.5" stroke-linecap="round" stroke-linejoin="round"/>
<path d="M13.9998 8H9.99976C9.44747 8 8.99976 8.44772 8.99976 9V19C8.99976 19.5523 9.44747 20 9.99976 20H13.9998C14.552 20 14.9998 19.5523 14.9998 19V9C14.9998 8.44772 14.552 8 13.9998 8Z" stroke="#0C8CE9" stroke-width="1.5" stroke-linecap="round" stroke-linejoin="round"/>
<path d="M20 4.00006H16C15.4477 4.00006 15 4.44778 15 5.00006V19.0001C15 19.5523 15.4477 20.0001 16 20.0001H20C20.5523 20.0001 21 19.5523 21 19.0001V5.00006C21 4.44778 20.5523 4.00006 20 4.00006Z" stroke="#0C8CE9" stroke-width="1.5" stroke-linecap="round" stroke-linejoin="round"/>
<path d="M4 20H18" stroke="#0C8CE9" stroke-width="1.5" stroke-linecap="round" stroke-linejoin="round"/>
</svg>
