<svg width="24" height="24" viewBox="0 0 24 24" fill="none" xmlns="http://www.w3.org/2000/svg">
<path d="M9.00012 5H7.00012C6.46969 5 5.96098 5.21071 5.58591 5.58579C5.21084 5.96086 5.00012 6.46957 5.00012 7V19C5.00012 19.5304 5.21084 20.0391 5.58591 20.4142C5.96098 20.7893 6.46969 21 7.00012 21H17.0001C17.5306 21 18.0393 20.7893 18.4143 20.4142C18.7894 20.0391 19.0001 19.5304 19.0001 19V7C19.0001 6.46957 18.7894 5.96086 18.4143 5.58579C18.0393 5.21071 17.5306 5 17.0001 5H15.0001" stroke="#0C8CE9" stroke-width="1.5" stroke-linecap="round" stroke-linejoin="round"/>
<path d="M13.0001 3H11.0001C9.89555 3 9.00012 3.89543 9.00012 5C9.00012 6.10457 9.89555 7 11.0001 7H13.0001C14.1047 7 15.0001 6.10457 15.0001 5C15.0001 3.89543 14.1047 3 13.0001 3Z" stroke="#0C8CE9" stroke-width="1.5" stroke-linecap="round" stroke-linejoin="round"/>
<path d="M9.00012 11.9999H9.01041" stroke="#0C8CE9" stroke-width="1.5" stroke-linecap="round" stroke-linejoin="round"/>
<path d="M12.9998 11.9999H14.9998" stroke="#0C8CE9" stroke-width="1.5" stroke-linecap="round" stroke-linejoin="round"/>
<path d="M9.00012 16H9.01041" stroke="#0C8CE9" stroke-width="1.5" stroke-linecap="round" stroke-linejoin="round"/>
<path d="M12.9998 16H14.9998" stroke="#0C8CE9" stroke-width="1.5" stroke-linecap="round" stroke-linejoin="round"/>
</svg>
