<svg width="24" height="24" viewBox="0 0 24 24" fill="none" xmlns="http://www.w3.org/2000/svg">
<path d="M6.99988 13H5.99988C4.89531 13 3.99988 13.8954 3.99988 15V18C3.99988 19.1046 4.89531 20 5.99988 20H6.99988C8.10445 20 8.99988 19.1046 8.99988 18V15C8.99988 13.8954 8.10445 13 6.99988 13Z" stroke="#0C8CE9" stroke-width="1.5" stroke-linecap="round" stroke-linejoin="round"/>
<path d="M18.0002 13H17.0002C15.8957 13 15.0002 13.8954 15.0002 15V18C15.0002 19.1046 15.8957 20 17.0002 20H18.0002C19.1048 20 20.0002 19.1046 20.0002 18V15C20.0002 13.8954 19.1048 13 18.0002 13Z" stroke="#0C8CE9" stroke-width="1.5" stroke-linecap="round" stroke-linejoin="round"/>
<path d="M3.99988 15V12C3.99988 9.8783 4.84273 7.84347 6.34302 6.34318C7.84332 4.84289 9.87815 4.00003 11.9999 4.00003C14.1216 4.00003 16.1564 4.84289 17.6567 6.34318C19.157 7.84347 19.9999 9.8783 19.9999 12V15" stroke="#0C8CE9" stroke-width="1.5" stroke-linecap="round" stroke-linejoin="round"/>
</svg>
