<svg width="24" height="24" viewBox="0 0 24 24" fill="none" xmlns="http://www.w3.org/2000/svg">
<path d="M16 6.00006H19C19.2652 6.00006 19.5196 6.10542 19.7071 6.29295C19.8946 6.48049 20 6.73484 20 7.00006V18.0001C20 18.5305 19.7893 19.0392 19.4142 19.4143C19.0391 19.7893 18.5304 20.0001 18 20.0001C17.4696 20.0001 16.9609 19.7893 16.5858 19.4143C16.2107 19.0392 16 18.5305 16 18.0001V5.00006C16 4.73484 15.8946 4.48049 15.7071 4.29295C15.5196 4.10542 15.2652 4.00006 15 4.00006H5C4.73478 4.00006 4.48043 4.10542 4.29289 4.29295C4.10536 4.48049 4 4.73484 4 5.00006V17.0001C4 17.7957 4.31607 18.5588 4.87868 19.1214C5.44129 19.684 6.20435 20.0001 7 20.0001H18" stroke="#0C8CE9" stroke-width="1.5" stroke-linecap="round" stroke-linejoin="round"/>
<path d="M7.99976 8H11.9998" stroke="#0C8CE9" stroke-width="1.5" stroke-linecap="round" stroke-linejoin="round"/>
<path d="M7.99976 12H11.9998" stroke="#0C8CE9" stroke-width="1.5" stroke-linecap="round" stroke-linejoin="round"/>
<path d="M7.99976 15.9999H11.9998" stroke="#0C8CE9" stroke-width="1.5" stroke-linecap="round" stroke-linejoin="round"/>
</svg>
