<svg width="24" height="24" viewBox="0 0 24 24" fill="none" xmlns="http://www.w3.org/2000/svg">
<path d="M12 21.0001C16.9706 21.0001 21 16.9706 21 12.0001C21 7.0295 16.9706 3.00006 12 3.00006C7.02944 3.00006 3 7.0295 3 12.0001C3 16.9706 7.02944 21.0001 12 21.0001Z" stroke="#0C8CE9" stroke-width="1.5" stroke-linecap="round" stroke-linejoin="round"/>
<path d="M7.00024 10.0001V12.0001C7.00024 12.5305 7.21096 13.0392 7.58603 13.4143C7.9611 13.7893 8.46981 14.0001 9.00024 14.0001C9.53068 14.0001 10.0394 13.7893 10.4145 13.4143C10.7895 13.0392 11.0002 12.5305 11.0002 12.0001V10.0001" stroke="#0C8CE9" stroke-width="1.5" stroke-linecap="round" stroke-linejoin="round"/>
<path d="M14 10.0001L17 14.0001" stroke="#0C8CE9" stroke-width="1.5" stroke-linecap="round" stroke-linejoin="round"/>
<path d="M14 14.0001L17 10.0001" stroke="#0C8CE9" stroke-width="1.5" stroke-linecap="round" stroke-linejoin="round"/>
</svg>
