<svg width="60" height="60" viewBox="0 0 60 60" fill="none" xmlns="http://www.w3.org/2000/svg">
<mask id="mask0_563_33" style="mask-type:luminance" maskUnits="userSpaceOnUse" x="0" y="0" width="60" height="60">
<path d="M60 0H0V60H60V0Z" fill="white"/>
</mask>
<g mask="url(#mask0_563_33)">
<path fill-rule="evenodd" clip-rule="evenodd" d="M55.4149 9.21097L55.7521 11.1197C56.0178 12.8953 56.1409 14.6872 56.1204 16.4801C56.1181 20.4422 55.6078 24.3896 54.6 28.2377C53.2373 33.4657 50.8637 38.4157 47.5969 42.8428C43.8218 47.9272 38.3633 52.928 30.4068 56.9462L29.4334 57.4375L28.4601 56.9462C20.5037 52.928 15.0474 47.9272 11.2701 42.8428C8.00323 38.4157 5.62968 33.4657 4.26686 28.2377C3.25941 24.3904 2.74897 20.4436 2.74655 16.4822C2.72599 14.6893 2.84912 12.8974 3.11492 11.1218L3.45201 9.21305C3.48078 9.0574 3.47638 8.89793 3.43905 8.74387C3.40173 8.58982 3.33221 8.4442 3.2345 8.31541C3.1368 8.18662 3.01285 8.07721 2.86979 7.99349C2.72672 7.90976 2.56739 7.85338 2.40095 7.82759C2.23452 7.80179 2.06429 7.8071 1.90005 7.84321C1.73581 7.8793 1.58084 7.94549 1.44404 8.03794C1.30724 8.13038 1.19134 8.24726 1.103 8.38184C1.01466 8.51644 0.955633 8.66606 0.929326 8.82211L0.592224 10.7308C0.302268 12.6356 0.167188 14.5582 0.188147 16.4822C0.189754 20.6387 0.72492 24.7799 1.78212 28.8169C3.22123 34.3297 5.72648 39.5489 9.17382 44.2163C13.1588 49.5872 18.9386 54.8681 27.2568 59.0597L28.8373 59.8562C29.0236 59.9506 29.2319 59.9999 29.4435 59.9999C29.6551 59.9999 29.8635 59.9506 30.0496 59.8562L31.6279 59.0597C39.9373 54.866 45.7193 49.5872 49.711 44.2163C53.1566 39.5492 55.6603 34.3307 57.0981 28.819C58.1554 24.782 58.6905 20.6408 58.6921 16.4843C58.7131 14.5603 58.5779 12.6377 58.2882 10.7329L57.951 8.82421C57.9247 8.66815 57.8656 8.51852 57.7773 8.38394C57.6891 8.24935 57.5731 8.13247 57.4363 8.04002C57.2995 7.94758 57.1444 7.8814 56.9802 7.84529C56.8161 7.80919 56.6458 7.80389 56.4793 7.82968C56.3129 7.85548 56.1535 7.91185 56.0105 7.99558C55.8674 8.07929 55.7434 8.1887 55.6459 8.31749C55.5482 8.44628 55.4787 8.5919 55.4413 8.74597C55.404 8.90003 55.3995 9.05948 55.4284 9.21515L55.4149 9.21097Z" fill="black"/>
<path fill-rule="evenodd" clip-rule="evenodd" d="M10.4365 7.91063L29.4354 2.47505L48.8584 8.02771C49.1836 8.11874 49.5341 8.08544 49.8332 7.9351C50.1321 7.78475 50.3554 7.52962 50.4539 7.22551C50.5526 6.9214 50.5184 6.59311 50.3592 6.31246C50.2 6.03181 49.9285 5.82167 49.6041 5.72804L29.8082 0.0687714C29.5653 -0.000951143 29.3055 -0.000951143 29.0625 0.0687714L9.68863 5.60678C9.52672 5.65211 9.37598 5.72693 9.24503 5.82695C9.1141 5.92699 9.00555 6.05024 8.9256 6.18965C8.84567 6.32906 8.79593 6.4819 8.77923 6.63935C8.76253 6.79682 8.77921 6.95582 8.82831 7.10723C8.8774 7.25866 8.95795 7.39949 9.06532 7.52168C9.17269 7.64387 9.30478 7.74499 9.45401 7.81925C9.60322 7.8935 9.76664 7.93943 9.93486 7.9544C10.1031 7.96936 10.2728 7.95307 10.4343 7.90645L10.4365 7.91063Z" fill="black"/>
<path fill-rule="evenodd" clip-rule="evenodd" d="M1.05569 9.56255L28.2936 59.3445C28.3998 59.539 28.5609 59.7027 28.7594 59.8174C28.9579 59.9323 29.1862 59.9941 29.4195 59.9961C29.6528 59.998 29.8822 59.9401 30.0829 59.8285C30.2834 59.7169 30.4476 59.556 30.5575 59.3632L47.1681 30.2722L47.1927 30.2263L57.8245 9.5291C57.9685 9.24347 57.9865 8.91612 57.8742 8.61822C57.762 8.32032 57.5288 8.07593 57.2251 7.9382C56.9215 7.80047 56.5722 7.7805 56.2529 7.88267C55.9337 7.98483 55.6705 8.20086 55.5204 8.48378L44.9065 29.1642L29.4702 56.2168L3.33072 8.46705C3.25538 8.32529 3.15077 8.19891 3.02289 8.09528C2.89503 7.99164 2.74647 7.91279 2.58582 7.8633C2.42519 7.8138 2.25566 7.79466 2.08705 7.80696C1.91846 7.81928 1.75414 7.86279 1.60363 7.93499C1.45311 8.00718 1.3194 8.10663 1.21022 8.22758C1.10105 8.34851 1.01859 8.48853 0.967628 8.63952C0.916664 8.79053 0.898204 8.94948 0.913319 9.10721C0.928436 9.26493 0.976826 9.41828 1.05569 9.55836V9.56255Z" fill="black"/>
<path fill-rule="evenodd" clip-rule="evenodd" d="M14.0941 31.7323H44.3832C44.7222 31.7323 45.0472 31.6063 45.287 31.3818C45.5266 31.1574 45.6614 30.853 45.6614 30.5355C45.6614 30.2181 45.5266 29.9137 45.287 29.6892C45.0472 29.4648 44.7222 29.3386 44.3832 29.3386H14.0941C13.7551 29.3386 13.43 29.4648 13.1903 29.6892C12.9506 29.9137 12.8159 30.2181 12.8159 30.5355C12.8159 30.853 12.9506 31.1574 13.1903 31.3818C13.43 31.6063 13.7551 31.7323 14.0941 31.7323Z" fill="black"/>
</g>
</svg>
