<svg width="75" height="62" viewBox="0 0 75 62" fill="none" xmlns="http://www.w3.org/2000/svg">
<path d="M51.3202 40.9168L64.8403 33.0306C65.5571 32.6116 66 31.8347 66 31.001V15.2285C66 14.3947 65.5571 13.6179 64.8403 13.1989L51.3202 5.31266C50.6035 4.89375 49.7137 4.89782 49.001 5.31266L35.4807 13.1989C34.7642 13.6179 34.3212 14.3947 34.3212 15.2285V43.414L24.8394 48.9413L15.3575 43.414V32.3555L24.8394 26.8282L31.0923 30.4763V23.0578L25.9988 20.0847C25.6485 19.8813 25.2461 19.7715 24.8394 19.7715C24.4326 19.7715 24.0302 19.8813 23.6799 20.0847L10.1596 27.9709C9.4429 28.3899 9 29.1668 9 30.0005V45.7731C9 46.6069 9.4429 47.3836 10.1596 47.8025L23.6799 55.6889C24.3964 56.1037 25.2823 56.1037 25.9988 55.6889L39.5191 47.8025C40.2359 47.3836 40.6786 46.6069 40.6786 45.7731V17.5834L40.8477 17.4857L50.1566 12.0561L59.6385 17.5834V28.6421L50.1566 34.1694L43.9117 30.5291V37.9479L48.9969 40.9128C49.7137 41.3276 50.6035 41.3276 51.3161 40.9128L51.3202 40.9168Z" fill="url(#paint0_linear_16_1427)"/>
<defs>
<linearGradient id="paint0_linear_16_1427" x1="8.81479" y1="47.3185" x2="63.8295" y2="15.7074" gradientUnits="userSpaceOnUse">
<stop stop-color="#A726C1"/>
<stop offset="0.88" stop-color="#803BDF"/>
<stop offset="1" stop-color="#7B3FE4"/>
</linearGradient>
</defs>
</svg>
